<?xml version="1.0" standalone="no"?>
<!DOCTYPE svg PUBLIC "-//W3C//DTD SVG 20010904//EN"
 "http://www.w3.org/TR/2001/REC-SVG-20010904/DTD/svg10.dtd">
<svg version="1.0" xmlns="http://www.w3.org/2000/svg"
 width="32.000000pt" height="32.000000pt" viewBox="0 0 4421.000000 4422.000000"
 preserveAspectRatio="xMidYMid meet">
<text transform="matrix(1 0 0 1 -437.375 52.2007)" font-family="'Righteous-Regular'" font-size="69.0109">O2 Arquitectura Sostenible</text>
<metadata>
	@Author Angel Contreras - Julio 2018
</metadata>
<g transform="translate(0.000000,4422.000000) scale(0.100000,-0.100000)"
fill="#000000" stroke="none">
<path d="M30 44192 c0 -10 -2 -21 -4 -23 -2 -2 -6 -9112 -10 -20244 -3 -11132
-9 -21067 -13 -22078 l-6 -1837 22108 0 c17687 0 22107 3 22097 13 -10 9
-4439 13 -22060 15 -15729 2 -22050 6 -22057 14 -7 7 6298 9 22058 5 l22067
-6 0 22079 0 22080 -22090 0 c-21414 0 -22090 -1 -22090 -18z m43010 -22127
l0 -21065 -21060 0 -21060 0 0 21065 0 21065 21060 0 21060 0 0 -21065z"/>
<path d="M1210 22085 l0 -20795 20790 0 20790 0 0 20795 0 20795 -20790 0
-20790 0 0 -20795z m33011 15895 c298 -31 569 -128 815 -291 135 -91 348 -300
447 -439 79 -113 194 -339 235 -465 245 -746 -17 -1554 -653 -2010 -109 -78
-335 -192 -465 -235 -656 -213 -1377 -33 -1846 463 -445 470 -595 1163 -388
1787 132 397 414 746 772 957 321 189 704 271 1083 233z m-5211 -1040 c418
-42 702 -103 972 -211 496 -197 915 -475 1206 -799 384 -428 601 -933 679
-1580 21 -176 23 -571 4 -735 -73 -635 -297 -1217 -706 -1835 -349 -527 -788
-1010 -1610 -1771 -959 -886 -1199 -1123 -1416 -1391 -157 -193 -274 -376
-255 -396 4 -4 905 -8 2002 -10 l1994 -2 0 -935 0 -935 -3551 0 -3552 0 7 78
c12 129 54 357 101 547 144 585 407 1156 771 1675 436 622 1062 1289 2329
2476 651 611 1092 1062 1333 1367 155 195 327 497 400 702 100 282 144 591
122 850 -58 669 -393 1075 -995 1204 -151 33 -288 44 -445 38 -539 -24 -951
-274 -1154 -700 -98 -208 -179 -525 -201 -797 -8 -92 -26 -150 -47 -150 -68
-1 -1965 195 -1971 204 -35 50 63 599 170 946 222 720 570 1210 1123 1579 513
341 1157 544 1890 595 102 7 694 -3 800 -14z m-11005 -8805 c1455 -111 2800
-562 4017 -1346 967 -622 1840 -1486 2473 -2444 743 -1126 1207 -2406 1354
-3740 37 -332 43 -438 48 -864 6 -445 -2 -651 -38 -1000 -164 -1619 -800
-3167 -1824 -4441 -212 -263 -351 -418 -624 -691 -265 -265 -423 -408 -671
-609 -889 -718 -1923 -1255 -3020 -1567 -554 -157 -1107 -255 -1725 -305 -216
-18 -1056 -18 -1265 0 -1142 96 -2126 368 -3125 862 -695 344 -1284 739 -1890
1269 -160 139 -602 583 -744 746 -380 435 -678 848 -966 1340 -107 181 -319
594 -410 800 -426 952 -668 1972 -726 3050 -15 278 -6 913 15 1160 97 1096
361 2057 825 3010 563 1154 1336 2123 2341 2931 685 552 1498 1011 2346 1328
813 303 1679 479 2594 526 227 12 773 4 1015 -15z m-9922 -19780 c340 -51 645
-265 806 -565 210 -392 182 -864 -76 -1233 l-54 -78 22 -32 c13 -18 66 -88
119 -157 110 -142 200 -272 200 -288 0 -18 -427 -14 -462 4 -15 8 -61 59 -102
113 -42 55 -81 101 -88 103 -6 2 -42 -8 -79 -23 -37 -15 -116 -40 -176 -55
-96 -25 -126 -28 -273 -29 -187 0 -266 13 -415 72 -250 98 -447 273 -572 509
-150 284 -175 630 -69 930 179 499 695 808 1219 729z m8118 0 c234 -40 458
-154 622 -315 44 -43 78 -82 76 -88 -7 -17 -241 -282 -250 -282 -4 0 -54 36
-111 80 -164 128 -300 189 -470 212 -254 34 -515 -79 -664 -287 -57 -80 -109
-194 -130 -282 -24 -104 -15 -274 20 -378 84 -248 254 -412 493 -477 119 -32
298 -30 416 6 140 42 225 90 339 192 60 54 61 54 82 36 12 -10 78 -69 149
-131 l127 -113 -20 -28 c-31 -44 -147 -147 -222 -196 -345 -230 -851 -258
-1230 -68 -306 153 -527 481 -577 857 -66 483 176 939 614 1160 77 38 221 86
305 102 102 18 327 19 431 0z m9656 0 c143 -34 269 -112 396 -244 77 -80 77
-81 61 -106 -14 -22 -139 -134 -242 -218 l-34 -27 -81 75 c-91 84 -181 135
-237 135 -59 0 -126 -28 -161 -67 -27 -31 -30 -42 -26 -75 10 -78 81 -155 347
-380 376 -316 480 -461 496 -688 8 -103 -15 -203 -72 -319 -79 -160 -204 -261
-384 -308 -91 -24 -320 -24 -410 1 -109 30 -213 90 -293 171 -73 74 -180 231
-181 266 -1 15 40 45 162 119 l162 100 43 -57 c118 -158 211 -223 316 -223
136 2 241 86 241 194 0 103 -42 153 -382 454 -307 272 -369 345 -425 500 -71
193 -27 379 127 533 80 81 173 135 280 163 72 19 219 20 297 1z m2185 -18
c405 -106 736 -450 819 -852 26 -125 26 -375 0 -500 -103 -499 -568 -875
-1081 -875 -325 0 -651 149 -860 391 -381 444 -352 1131 65 1544 168 166 392
278 630 315 108 16 318 5 427 -23z m1933 -1 c91 -31 172 -78 246 -141 56 -48
159 -164 159 -180 0 -6 -63 -66 -140 -134 -160 -140 -136 -136 -235 -35 -74
74 -167 124 -234 124 -56 0 -126 -33 -155 -72 -28 -39 -26 -108 5 -152 13 -18
125 -123 249 -232 393 -346 485 -450 541 -614 26 -78 31 -225 10 -310 -19 -79
-82 -207 -127 -262 -77 -93 -195 -164 -321 -195 -87 -21 -306 -24 -383 -4
-140 35 -279 124 -373 239 -53 65 -137 194 -137 209 1 8 320 203 332 203 4 0
40 -41 79 -90 104 -132 183 -180 299 -180 114 0 218 82 228 180 4 42 0 61 -26
113 -36 73 -58 95 -363 360 -225 195 -304 278 -369 387 -64 108 -83 178 -78
296 3 98 5 105 50 196 82 165 219 275 390 313 99 23 255 14 353 -19z m-24162
-26 c274 -19 373 -54 493 -174 116 -116 173 -262 174 -444 0 -245 -108 -425
-322 -538 -38 -19 -68 -39 -68 -44 0 -19 332 -635 443 -823 30 -52 37 -71 28
-77 -9 -5 -10 -10 -2 -14 34 -21 -5 -26 -208 -26 l-219 0 -99 183 c-54 101
-159 296 -233 435 -135 251 -159 284 -174 230 -3 -13 -6 -209 -6 -435 l0 -413
-205 0 -205 0 0 1073 0 1072 226 3 c124 2 294 -2 377 -8z m3982 -12 c6 -6 12
-285 16 -776 3 -506 9 -777 16 -798 30 -87 82 -145 161 -182 48 -21 64 -24
142 -20 73 3 99 9 146 34 63 32 115 90 136 152 9 28 13 224 16 814 l3 777 32
7 c39 10 365 9 375 -1 4 -4 7 -363 7 -798 0 -880 1 -860 -68 -1009 -83 -180
-272 -329 -475 -374 -57 -13 -104 -15 -196 -11 -205 9 -378 74 -500 188 -118
110 -173 233 -201 445 -13 100 -15 237 -13 839 l3 720 65 6 c86 8 322 -1 335
-13z m1793 15 l82 -6 0 -1068 0 -1069 -190 0 -190 0 2 1068 3 1067 40 6 c58 9
158 10 253 2z m7332 -10 c3 -2 7 -347 10 -766 5 -700 7 -766 24 -817 35 -107
100 -169 206 -196 139 -35 285 28 344 149 44 90 48 158 55 917 l6 715 75 8
c41 4 130 4 198 1 114 -6 123 -8 128 -28 2 -11 3 -376 2 -811 l-4 -790 -22
-75 c-39 -126 -87 -206 -182 -301 -73 -73 -101 -94 -180 -132 -52 -25 -122
-51 -155 -58 -89 -18 -246 -14 -351 9 -325 72 -498 255 -545 577 -8 53 -13
341 -16 842 l-5 762 79 4 c89 5 325 -2 333 -10z m15084 3 c23 -10 47 -33 72
-73 228 -357 765 -1178 792 -1210 19 -24 38 -43 43 -43 5 0 9 287 9 659 0 363
4 662 8 665 18 11 214 18 305 11 l97 -7 0 -1089 0 -1089 -192 0 -193 1 -45 81
c-61 110 -152 255 -434 688 -131 201 -272 418 -314 482 -62 96 -79 115 -92
108 -15 -8 -18 -67 -24 -652 -4 -354 -9 -658 -13 -675 l-5 -33 -194 0 -194 0
0 1090 0 1089 158 4 c86 1 163 4 170 5 7 1 28 -4 46 -12z m3225 3 c211 -20
347 -69 450 -165 105 -97 157 -204 168 -346 12 -149 -30 -264 -140 -384 -33
-35 -58 -66 -56 -67 2 -2 34 -22 71 -46 135 -86 236 -222 268 -360 17 -73 15
-233 -5 -305 -43 -164 -174 -321 -327 -395 -143 -69 -173 -73 -605 -78 l-383
-5 0 1076 0 1075 98 4 c227 7 354 6 461 -4z m1529 -5 l32 -5 0 -863 0 -863 61
-7 c34 -3 162 -6 284 -6 195 0 224 -2 236 -17 15 -17 27 -300 15 -348 l-6 -25
-500 0 -500 0 0 1065 0 1064 33 6 c69 11 269 11 345 -1z m-17609 -4 c317 -33
496 -178 562 -458 27 -112 23 -266 -10 -357 -45 -125 -151 -246 -286 -326 -41
-24 -75 -48 -75 -54 0 -5 110 -217 244 -470 l243 -460 -214 -3 c-120 -1 -221
2 -231 7 -10 5 -107 177 -217 383 -239 448 -247 462 -268 466 -16 3 -17 -29
-17 -421 l0 -425 -22 -6 c-13 -3 -107 -6 -210 -6 l-188 0 0 1070 0 1070 294 0
c162 0 339 -5 395 -10z m-17094 -27 c3 -10 186 -487 407 -1061 220 -574 397
-1046 393 -1050 -4 -4 -99 -7 -212 -7 l-205 0 -18 45 c-9 25 -47 123 -84 218
l-68 172 -429 0 -429 0 -26 -52 c-15 -29 -44 -98 -64 -153 -21 -55 -49 -126
-63 -157 l-26 -58 -212 0 c-196 0 -211 1 -206 18 7 27 220 588 382 1007 81
209 207 537 281 729 74 192 137 353 140 358 3 4 101 8 219 8 193 0 213 -2 220
-17z m9099 -29 c3 -26 6 -114 6 -196 l0 -148 -26 -10 c-14 -6 -89 -10 -167
-10 -78 0 -159 -3 -179 -6 l-38 -7 0 -898 0 -898 -37 -8 c-47 -10 -390 -9
-401 1 -4 4 -8 415 -10 912 l-3 904 -189 0 -189 0 -5 33 c-15 98 -16 133 -10
250 l7 127 617 0 617 0 7 -46z m1390 29 c14 -52 17 -117 11 -229 l-7 -124
-359 0 -359 0 0 -190 0 -190 369 0 368 0 7 -46 c3 -26 6 -118 6 -205 l0 -159
-375 0 -375 0 0 -270 0 -270 375 0 375 0 0 -210 0 -210 -580 0 -580 0 0 1060
0 1060 559 0 c524 0 560 -1 565 -17z m3706 -188 l0 -205 -185 0 -185 0 -2
-862 -3 -862 -30 -8 c-16 -5 -110 -10 -208 -11 l-177 -2 0 873 0 872 -184 0
-183 0 -7 31 c-3 17 -6 110 -6 205 l0 174 585 0 585 0 0 -205z m5399 -847
c222 -579 406 -1056 408 -1061 2 -4 -94 -6 -213 -5 l-218 3 -81 205 -80 205
-428 3 -427 2 -20 -32 c-11 -18 -36 -76 -56 -128 -60 -155 -94 -236 -108 -256
-12 -16 -32 -18 -167 -22 -85 -2 -179 1 -210 5 l-55 8 409 1063 410 1062 217
0 216 0 403 -1052z m8155 1030 c3 -13 6 -105 6 -205 l0 -183 -195 0 -195 0 0
-855 0 -855 -210 0 -210 0 0 855 0 855 -185 0 -185 0 0 205 0 205 584 0 584 0
6 -22z m1446 -183 l0 -205 -375 0 -375 0 0 -170 0 -170 375 0 375 0 0 -205 0
-205 -375 0 -375 0 0 -270 0 -270 389 0 c301 0 392 -3 398 -12 11 -18 17 -244
8 -333 l-7 -75 -604 0 -604 0 0 1060 0 1060 585 0 585 0 0 -205z m2960 -855
l0 -1060 -210 0 -210 0 0 1060 0 1060 210 0 210 0 0 -1060z m4624 1044 c3 -9
6 -92 6 -185 l0 -169 -350 0 c-325 0 -351 -1 -357 -17 -4 -10 -7 -94 -8 -188
l0 -170 378 -3 377 -2 0 -205 0 -205 -375 0 -375 0 0 -270 0 -270 363 0 c199
0 372 -3 384 -6 11 -3 24 -16 28 -27 11 -37 18 -250 11 -321 l-8 -66 -599 0
-599 0 0 1060 0 1060 559 0 c500 0 559 -2 565 -16z"/>
<path d="M33855 37910 c-628 -72 -1148 -464 -1386 -1046 -90 -221 -124 -421
-116 -692 7 -271 52 -460 162 -690 343 -714 1123 -1093 1900 -921 139 31 228
64 380 139 181 90 303 178 445 320 143 143 231 265 319 445 108 218 151 375
173 618 42 486 -130 969 -471 1321 -253 261 -571 428 -936 491 -111 19 -362
27 -470 15z m375 -285 c136 -18 243 -47 355 -95 429 -183 729 -530 841 -974
38 -149 45 -401 15 -574 -50 -293 -176 -545 -377 -752 -214 -220 -478 -359
-786 -411 -105 -18 -148 -20 -293 -16 -180 6 -251 18 -396 67 -482 161 -844
577 -946 1087 -12 64 -17 136 -17 263 0 127 5 199 17 263 122 608 614 1067
1227 1146 103 13 246 12 360 -4z"/>
<path d="M33900 37563 c-143 -15 -317 -66 -453 -134 -143 -71 -238 -140 -358
-259 -201 -200 -319 -422 -376 -706 -26 -131 -23 -375 6 -511 116 -550 525
-952 1076 -1059 63 -12 138 -17 250 -17 180 0 297 20 452 74 445 157 776 540
870 1007 27 135 25 395 -6 531 -107 484 -447 866 -906 1016 -164 54 -380 76
-555 58z m568 -336 c182 -48 315 -182 351 -355 6 -29 11 -93 11 -142 0 -242
-133 -403 -405 -490 l-71 -23 117 -116 c127 -128 169 -184 348 -469 66 -107
130 -205 141 -220 20 -24 20 -26 3 -36 -27 -15 -255 -21 -281 -7 -12 6 -40 35
-62 64 -22 29 -67 83 -100 121 -45 52 -80 109 -134 220 -87 179 -147 262 -235
328 -102 75 -187 98 -362 98 -99 0 -150 -4 -174 -14 l-35 -15 0 -399 0 -400
-22 -6 c-30 -8 -157 -8 -197 0 l-31 7 0 928 c0 873 1 929 18 939 12 7 180 9
537 7 442 -3 529 -7 583 -20z"/>
<path d="M33698 37003 l-118 -4 0 -290 0 -291 353 4 c301 4 359 7 398 21 63
24 109 66 144 128 27 49 30 63 30 144 0 81 -3 95 -28 138 -34 58 -93 102 -161
122 -55 16 -329 36 -436 33 -36 -1 -118 -4 -182 -5z"/>
<path d="M17065 25799 c-1823 -87 -3511 -986 -4621 -2461 -642 -854 -1053
-1867 -1188 -2928 -36 -280 -41 -380 -41 -790 1 -511 23 -751 111 -1190 296
-1485 1135 -2817 2349 -3728 460 -346 1010 -647 1528 -838 67 -24 132 -49 143
-54 102 -42 512 -155 744 -204 1085 -230 2231 -164 3269 189 2264 769 3881
2772 4145 5135 31 276 39 458 33 823 -5 378 -16 520 -63 827 -280 1832 -1378
3444 -2989 4390 -179 105 -554 290 -760 376 -210 87 -585 211 -810 267 -613
155 -1224 216 -1850 186z"/>
<path d="M7817 7959 c-284 -38 -502 -239 -583 -539 -24 -88 -24 -280 -1 -375
24 -97 88 -220 149 -289 164 -184 447 -282 666 -231 52 12 115 37 131 51 2 1
-77 108 -176 236 -98 128 -182 238 -185 243 -4 7 68 10 205 10 210 0 212 0
262 -27 56 -29 110 -82 149 -145 14 -23 35 -47 45 -53 18 -9 24 -3 60 72 58
121 74 193 75 328 0 129 -16 206 -64 309 -135 289 -426 451 -733 410z"/>
<path d="M27602 7945 c-35 -8 -102 -33 -150 -56 -111 -54 -238 -177 -294 -284
-67 -130 -83 -200 -83 -370 0 -129 3 -160 23 -225 75 -239 241 -401 482 -470
104 -30 283 -38 367 -17 232 60 431 266 500 517 28 102 25 312 -6 410 -77 251
-259 429 -499 491 -89 23 -245 24 -340 4z"/>
<path d="M5628 7904 c-5 -4 -8 -99 -8 -210 l0 -203 47 -7 c56 -8 213 1 268 17
54 15 104 54 121 95 30 72 12 188 -39 242 -50 54 -92 66 -242 70 -77 2 -143 1
-147 -4z"/>
<path d="M37080 7694 l0 -217 98 5 c188 9 272 77 272 218 0 148 -80 210 -271
210 l-99 0 0 -216z"/>
<path d="M37082 6833 l3 -268 100 -3 c187 -6 324 37 381 120 26 37 29 49 29
122 -1 120 -43 194 -139 243 -68 34 -164 53 -279 53 l-97 0 2 -267z"/>
<path d="M20908 7903 l-28 -4 0 -179 c0 -98 4 -190 9 -203 9 -22 17 -25 83
-31 100 -9 229 8 279 36 61 34 84 79 84 163 -1 121 -59 193 -174 215 -52 10
-197 11 -253 3z"/>
<path d="M3713 7417 c-106 -269 -156 -408 -149 -414 1 -2 127 -2 278 -1 l275
3 -130 338 c-113 291 -134 337 -152 337 -17 0 -35 -39 -122 -263z"/>
<path d="M22893 7377 c-73 -188 -135 -350 -139 -359 -6 -17 11 -18 270 -18
240 0 276 2 276 15 0 32 -248 675 -268 697 -4 4 -66 -147 -139 -335z"/>
</g>
</svg>
